<mxfile host="app.diagrams.net" modified="2024-03-20T16:47:33.204Z" agent="Mozilla/5.0 (Windows NT 10.0; Win64; x64) AppleWebKit/537.36 (KHTML, like Gecko) Chrome/122.0.0.0 Safari/537.36" etag="JPjmyie5VSqEjPaS39Fu" version="24.0.7" type="device">
  <diagram name="Страница — 1" id="Fqs1iVojvmHBeyy1XBsq">
    <mxGraphModel dx="1194" dy="750" grid="1" gridSize="10" guides="1" tooltips="1" connect="1" arrows="1" fold="1" page="1" pageScale="1" pageWidth="1169" pageHeight="827" math="0" shadow="0">
      <root>
        <mxCell id="0" />
        <mxCell id="1" parent="0" />
        <mxCell id="1aR9awszD0nnMIkoXRhI-5" value="" style="edgeStyle=orthogonalEdgeStyle;rounded=0;orthogonalLoop=1;jettySize=auto;html=1;" parent="1" source="1aR9awszD0nnMIkoXRhI-1" target="1aR9awszD0nnMIkoXRhI-4" edge="1">
          <mxGeometry relative="1" as="geometry" />
        </mxCell>
        <mxCell id="1aR9awszD0nnMIkoXRhI-1" value="Start" style="ellipse;whiteSpace=wrap;html=1;fontSize=18;" parent="1" vertex="1">
          <mxGeometry x="490" y="20" width="120" height="40" as="geometry" />
        </mxCell>
        <mxCell id="1aR9awszD0nnMIkoXRhI-7" value="" style="edgeStyle=orthogonalEdgeStyle;rounded=0;orthogonalLoop=1;jettySize=auto;html=1;" parent="1" source="1aR9awszD0nnMIkoXRhI-4" edge="1">
          <mxGeometry relative="1" as="geometry">
            <mxPoint x="550" y="130" as="targetPoint" />
          </mxGeometry>
        </mxCell>
        <mxCell id="1aR9awszD0nnMIkoXRhI-4" value="lenght" style="shape=parallelogram;perimeter=parallelogramPerimeter;whiteSpace=wrap;html=1;fixedSize=1;fontSize=18;" parent="1" vertex="1">
          <mxGeometry x="490" y="80" width="120" height="30" as="geometry" />
        </mxCell>
        <mxCell id="1aR9awszD0nnMIkoXRhI-9" value="" style="edgeStyle=orthogonalEdgeStyle;rounded=0;orthogonalLoop=1;jettySize=auto;html=1;" parent="1" target="1aR9awszD0nnMIkoXRhI-8" edge="1">
          <mxGeometry relative="1" as="geometry">
            <mxPoint x="550" y="160" as="sourcePoint" />
          </mxGeometry>
        </mxCell>
        <mxCell id="1aR9awszD0nnMIkoXRhI-11" value="" style="edgeStyle=orthogonalEdgeStyle;rounded=0;orthogonalLoop=1;jettySize=auto;html=1;" parent="1" source="1aR9awszD0nnMIkoXRhI-8" target="1aR9awszD0nnMIkoXRhI-10" edge="1">
          <mxGeometry relative="1" as="geometry" />
        </mxCell>
        <mxCell id="1aR9awszD0nnMIkoXRhI-16" value="" style="edgeStyle=orthogonalEdgeStyle;rounded=0;orthogonalLoop=1;jettySize=auto;html=1;" parent="1" source="1aR9awszD0nnMIkoXRhI-8" target="1aR9awszD0nnMIkoXRhI-15" edge="1">
          <mxGeometry relative="1" as="geometry" />
        </mxCell>
        <mxCell id="1aR9awszD0nnMIkoXRhI-8" value="stringArray[i].Lenght&amp;lt;=3" style="rhombus;whiteSpace=wrap;html=1;fontSize=18;" parent="1" vertex="1">
          <mxGeometry x="420" y="215" width="260" height="80" as="geometry" />
        </mxCell>
        <mxCell id="1aR9awszD0nnMIkoXRhI-25" value="" style="edgeStyle=orthogonalEdgeStyle;rounded=0;orthogonalLoop=1;jettySize=auto;html=1;" parent="1" source="1aR9awszD0nnMIkoXRhI-10" target="1aR9awszD0nnMIkoXRhI-24" edge="1">
          <mxGeometry relative="1" as="geometry" />
        </mxCell>
        <mxCell id="1aR9awszD0nnMIkoXRhI-10" value="i++" style="whiteSpace=wrap;html=1;fontSize=18;" parent="1" vertex="1">
          <mxGeometry x="490" y="330" width="120" height="60" as="geometry" />
        </mxCell>
        <mxCell id="1aR9awszD0nnMIkoXRhI-12" value="NO" style="text;html=1;align=center;verticalAlign=middle;resizable=0;points=[];autosize=1;strokeColor=none;fillColor=none;fontSize=18;" parent="1" vertex="1">
          <mxGeometry x="485" y="283" width="50" height="40" as="geometry" />
        </mxCell>
        <mxCell id="1aR9awszD0nnMIkoXRhI-23" value="" style="edgeStyle=orthogonalEdgeStyle;rounded=0;orthogonalLoop=1;jettySize=auto;html=1;entryX=1;entryY=0.5;entryDx=0;entryDy=0;exitX=0.5;exitY=1;exitDx=0;exitDy=0;" parent="1" source="1aR9awszD0nnMIkoXRhI-15" target="1aR9awszD0nnMIkoXRhI-10" edge="1">
          <mxGeometry relative="1" as="geometry">
            <mxPoint x="905" y="365" as="targetPoint" />
          </mxGeometry>
        </mxCell>
        <mxCell id="1aR9awszD0nnMIkoXRhI-15" value="newArray[index]=stringArray[i]&lt;div&gt;index++&lt;/div&gt;" style="whiteSpace=wrap;html=1;fontSize=18;" parent="1" vertex="1">
          <mxGeometry x="770" y="225" width="270" height="60" as="geometry" />
        </mxCell>
        <mxCell id="1aR9awszD0nnMIkoXRhI-17" value="Yes" style="text;html=1;align=center;verticalAlign=middle;resizable=0;points=[];autosize=1;strokeColor=none;fillColor=none;fontSize=18;" parent="1" vertex="1">
          <mxGeometry x="695" y="210" width="50" height="40" as="geometry" />
        </mxCell>
        <mxCell id="1aR9awszD0nnMIkoXRhI-36" value="" style="edgeStyle=orthogonalEdgeStyle;rounded=0;orthogonalLoop=1;jettySize=auto;html=1;" parent="1" source="1aR9awszD0nnMIkoXRhI-18" target="1aR9awszD0nnMIkoXRhI-35" edge="1">
          <mxGeometry relative="1" as="geometry" />
        </mxCell>
        <mxCell id="1aR9awszD0nnMIkoXRhI-18" value="Print newArray" style="shape=document;whiteSpace=wrap;html=1;boundedLbl=1;fontSize=18;" parent="1" vertex="1">
          <mxGeometry x="490" y="580" width="120" height="80" as="geometry" />
        </mxCell>
        <mxCell id="1aR9awszD0nnMIkoXRhI-27" value="" style="edgeStyle=orthogonalEdgeStyle;rounded=0;orthogonalLoop=1;jettySize=auto;html=1;entryX=0;entryY=0.5;entryDx=0;entryDy=0;exitX=0;exitY=0.5;exitDx=0;exitDy=0;" parent="1" source="1aR9awszD0nnMIkoXRhI-24" target="1aR9awszD0nnMIkoXRhI-8" edge="1">
          <mxGeometry relative="1" as="geometry">
            <mxPoint x="210" y="500" as="targetPoint" />
          </mxGeometry>
        </mxCell>
        <mxCell id="1aR9awszD0nnMIkoXRhI-31" value="" style="edgeStyle=orthogonalEdgeStyle;rounded=0;orthogonalLoop=1;jettySize=auto;html=1;" parent="1" source="1aR9awszD0nnMIkoXRhI-24" target="1aR9awszD0nnMIkoXRhI-18" edge="1">
          <mxGeometry relative="1" as="geometry" />
        </mxCell>
        <mxCell id="1aR9awszD0nnMIkoXRhI-24" value="i&amp;lt;stringArray.Lenght" style="rhombus;whiteSpace=wrap;html=1;fontSize=18;" parent="1" vertex="1">
          <mxGeometry x="390" y="460" width="320" height="80" as="geometry" />
        </mxCell>
        <mxCell id="1aR9awszD0nnMIkoXRhI-29" value="Yes" style="text;html=1;align=center;verticalAlign=middle;resizable=0;points=[];autosize=1;strokeColor=none;fillColor=none;fontSize=18;" parent="1" vertex="1">
          <mxGeometry x="320" y="460" width="50" height="40" as="geometry" />
        </mxCell>
        <mxCell id="1aR9awszD0nnMIkoXRhI-32" value="NO" style="text;html=1;align=center;verticalAlign=middle;resizable=0;points=[];autosize=1;strokeColor=none;fillColor=none;fontSize=18;" parent="1" vertex="1">
          <mxGeometry x="560" y="540" width="50" height="40" as="geometry" />
        </mxCell>
        <mxCell id="1aR9awszD0nnMIkoXRhI-35" value="End" style="ellipse;whiteSpace=wrap;html=1;fontSize=18;" parent="1" vertex="1">
          <mxGeometry x="490" y="720" width="120" height="40" as="geometry" />
        </mxCell>
        <mxCell id="6QKY06KMlkR476oeizWJ-1" value="&lt;span style=&quot;color: rgb(0, 0, 0); font-family: Helvetica; font-size: 18px; font-style: normal; font-variant-ligatures: normal; font-variant-caps: normal; font-weight: 400; letter-spacing: normal; orphans: 2; text-align: center; text-indent: 0px; text-transform: none; widows: 2; word-spacing: 0px; -webkit-text-stroke-width: 0px; white-space: normal; background-color: rgb(251, 251, 251); text-decoration-thickness: initial; text-decoration-style: initial; text-decoration-color: initial; display: inline !important; float: none;&quot;&gt;stringArray[lenght]&lt;/span&gt;" style="shape=parallelogram;perimeter=parallelogramPerimeter;whiteSpace=wrap;html=1;fixedSize=1;fontSize=18;" vertex="1" parent="1">
          <mxGeometry x="445" y="130" width="210" height="30" as="geometry" />
        </mxCell>
      </root>
    </mxGraphModel>
  </diagram>
</mxfile>
